<svg xmlns="http://www.w3.org/2000/svg" width="23.25" height="23.25" viewBox="0 0 23.25 23.25">
  <path id="Path_1" data-name="Path 1" d="M11.625-9A11.623,11.623,0,0,0,0-20.625,11.623,11.623,0,0,0-11.625-9,11.63,11.63,0,0,0-4.238,1.828,11.253,11.253,0,0,1-4.2-1.509c.211-.909,1.359-5.775,1.359-5.775a4.188,4.188,0,0,1-.347-1.725c0-1.617.937-2.822,2.1-2.822A1.46,1.46,0,0,1,.394-10.2,23.359,23.359,0,0,1-.567-6.323a1.686,1.686,0,0,0,1.72,2.1c2.067,0,3.656-2.18,3.656-5.325a4.59,4.59,0,0,0-4.856-4.73A5.031,5.031,0,0,0-5.3-9.234a4.578,4.578,0,0,0,.858,2.653.348.348,0,0,1,.08.333c-.089.366-.286,1.158-.323,1.317-.052.211-.169.258-.389.155-1.448-.675-2.358-2.8-2.358-4.5,0-3.67,2.667-7.036,7.683-7.036,4.031,0,7.167,2.873,7.167,6.712,0,4.008-2.527,7.233-6.033,7.233A3.114,3.114,0,0,1-1.275-3.708S-1.856-1.486-2-.942A13.068,13.068,0,0,1-3.441,2.1,11.58,11.58,0,0,0,0,2.625,11.623,11.623,0,0,0,11.625-9Z" transform="translate(11.625 20.625)" fill="#23001e"/>
</svg>
