<svg xmlns="http://www.w3.org/2000/svg" width="21.012" height="21.007" viewBox="0 0 21.012 21.007">
  <path id="Path_2" data-name="Path 2" d="M0-14.391A5.377,5.377,0,0,0-5.381-9,5.377,5.377,0,0,0,0-3.619,5.377,5.377,0,0,0,5.391-9,5.377,5.377,0,0,0,0-14.391ZM0-5.5A3.508,3.508,0,0,1-3.5-9a3.5,3.5,0,0,1,3.5-3.5A3.5,3.5,0,0,1,3.506-9,3.508,3.508,0,0,1,0-5.5Zm6.863-9.108a1.256,1.256,0,0,0-1.256-1.256,1.256,1.256,0,0,0-1.256,1.256,1.253,1.253,0,0,0,1.256,1.256A1.253,1.253,0,0,0,6.867-14.611Zm3.567,1.275a6.217,6.217,0,0,0-1.7-4.4,6.258,6.258,0,0,0-4.4-1.7c-1.734-.1-6.933-.1-8.667,0a6.248,6.248,0,0,0-4.4,1.692,6.237,6.237,0,0,0-1.7,4.4c-.1,1.734-.1,6.933,0,8.667a6.217,6.217,0,0,0,1.7,4.4,6.266,6.266,0,0,0,4.4,1.7c1.734.1,6.933.1,8.667,0a6.217,6.217,0,0,0,4.4-1.7,6.258,6.258,0,0,0,1.7-4.4C10.533-6.408,10.533-11.6,10.434-13.336ZM8.194-2.812a3.545,3.545,0,0,1-2,2C4.814-.267,1.533-.394,0-.394s-4.814.122-6.192-.422a3.545,3.545,0,0,1-2-2C-8.733-4.2-8.606-7.477-8.606-9s-.122-4.814.422-6.192a3.545,3.545,0,0,1,2-2c1.383-.548,4.664-.422,6.192-.422s4.814-.122,6.192.422a3.545,3.545,0,0,1,2,2c.548,1.383.422,4.664.422,6.192S8.742-4.191,8.194-2.812Z" transform="translate(10.504 19.508)" fill="#23001e"/>
</svg>
